<svg width="147" height="43" viewBox="0 0 147 43" fill="none" xmlns="http://www.w3.org/2000/svg">
<path d="M103.259 11.4914C102.665 9.52557 101.7 7.69189 100.415 6.08973C98.8355 4.15245 96.8376 2.59844 94.5712 1.54448C92.3048 0.490519 89.8289 -0.035998 87.3298 0.00463658C83.6846 -0.0824068 80.116 1.05828 77.1971 3.24345C74.2782 5.42862 72.1785 8.5315 71.2352 12.0536C69.1768 10.8846 66.8447 10.2835 64.4777 10.3118C61.4396 10.1829 58.4621 11.1878 56.1234 13.1313C53.7847 15.0747 52.2518 17.818 51.8225 20.8284C51.7334 21.4602 51.6892 22.0975 51.6902 22.7355C51.7263 25.5819 52.7047 28.3359 54.4722 30.5672C56.2398 32.7984 58.6969 34.3811 61.4595 35.0676C64.222 35.7542 67.1341 35.5059 69.7406 34.3617C72.347 33.2174 74.5008 31.2417 75.8652 28.7434C78.2606 30.9574 81.2504 32.4235 84.4675 32.9618C87.6847 33.5 90.989 33.087 93.9746 31.7733C96.9602 30.4596 99.4971 28.3025 101.274 25.567C103.05 22.8315 103.989 19.6367 103.976 16.3749C103.977 14.7207 103.736 13.0753 103.259 11.4914ZM64.4777 30.2316C60.906 30.2316 57.9847 27.0348 57.9847 22.7796C57.9847 18.5245 60.906 15.6252 64.4777 15.6252C68.0493 15.6252 70.9817 18.6898 70.9817 22.7796C70.9817 26.8694 68.0493 30.1875 64.4777 30.1875V30.2316ZM87.3298 28.0269C81.5313 28.0269 76.7911 23.0552 76.7911 16.4079C76.7911 10.0693 81.5313 5.24089 87.3298 5.24089C93.1282 5.24089 97.8684 10.0693 97.8684 16.4079C97.8684 23.0221 93.1172 27.9938 87.3298 27.9938V28.0269Z" fill="white"/>
<path d="M54.7216 33.4836C54.3027 33.557 53.8714 33.4976 53.4879 33.3138C53.1045 33.13 52.7881 32.8309 52.583 32.4584L48.9342 25.8441C48.66 25.3776 48.314 24.9573 47.9089 24.5985L47.3798 24.2016V24.1135C48.7897 23.6504 50.0599 22.8389 51.0728 21.7544C51.1996 19.412 51.9617 17.1484 53.2775 15.2063C53.2775 10.7968 50.9846 8.06298 47.457 6.87242C45.4933 6.36157 43.4658 6.13873 41.438 6.21096H25.8506C25.0714 5.51037 24.1711 4.95754 23.1938 4.57947C21.1137 3.81981 18.9011 3.4898 16.6899 3.60938H0V8.68032H4.40948V34.9497H0V39.9986H17.5166C19.3459 40.0829 21.1768 39.8745 22.9403 39.3813C25.0615 38.7418 26.9153 37.4261 28.219 35.6348C29.5226 33.8435 30.2046 31.675 30.1608 29.4599C30.1608 25.6127 28.3199 22.0851 24.2742 20.8504V20.7512C25.6668 20 26.8193 18.8713 27.5993 17.4946C28.3793 16.1179 28.7551 14.5492 28.6836 12.9685C28.6842 12.1704 28.5918 11.3751 28.408 10.5984H31.2963V29.1072H37.1719V25.7009H40.0711C41.901 25.7009 42.4743 26.1087 43.1467 27.3103L47.6444 35.4568C48.6255 37.2868 49.4633 37.8159 52.0539 37.8159H55.7468V33.4064L54.7216 33.4836ZM20.4269 34.2001C19.5989 34.5206 18.7117 34.6597 17.8253 34.608H11.0568V9.01102H16.6899C17.7616 8.97265 18.8292 9.16436 19.8206 9.57324C20.5207 10.0009 21.0877 10.6153 21.4577 11.3476C21.8277 12.0798 21.9861 12.9007 21.9151 13.7181C21.9151 16.5291 20.3277 18.4803 17.5056 18.4803H17.2851V23.8048H18.1229C18.8284 23.7521 19.5369 23.8522 20.2002 24.0983C20.8634 24.3445 21.4657 24.7309 21.9659 25.2311C22.4661 25.7314 22.8525 26.3337 23.0987 26.9969C23.3449 27.6601 23.445 28.3687 23.3923 29.0741C23.461 30.1262 23.2159 31.1749 22.688 32.0874C22.1601 33 21.3731 33.7353 20.4269 34.2001ZM42.4743 21.0599H37.1719V10.9071H41.4491C42.6631 10.8449 43.8765 11.0403 45.0097 11.4803C46.7515 12.1969 47.5121 13.7512 47.5121 15.8898C47.5121 19.23 45.5058 21.0599 42.4302 21.0599H42.4743Z" fill="white"/>
<path d="M146.185 25.3923H141.489V28.6994H132.527V20.3104H137.432V15.901H132.527V7.72133H140.872V11.0284H145.579V3.31186H123.432V7.46781H127.015V28.9971H126.949C126.578 27.6838 125.876 26.4875 124.911 25.5225C123.947 24.5576 122.75 23.8561 121.437 23.4853V23.375C122.852 22.6259 124.026 21.4909 124.822 20.1017C125.618 18.7124 126.004 17.1258 125.935 15.5261C126.002 13.7099 125.5 11.9181 124.5 10.4004C123.5 8.88277 122.052 7.715 120.357 7.05994C118.258 6.29567 116.028 5.96198 113.797 6.07882H101.23C102.451 7.69913 103.363 9.53017 103.92 11.4804H111.934H113.786C114.865 11.4489 115.938 11.6403 116.939 12.0427C117.642 12.4802 118.211 13.1022 118.584 13.8409C118.957 14.5796 119.12 15.4066 119.056 16.2317C119.056 19.0647 117.457 21.038 114.558 21.038H111.923V26.4065H115.231C115.942 26.3519 116.657 26.452 117.327 26.6997C117.996 26.9475 118.604 27.3371 119.109 27.8418C119.613 28.3465 120.003 28.9544 120.251 29.6238C120.499 30.2932 120.599 31.0082 120.544 31.7199C120.617 32.7743 120.376 33.8267 119.853 34.7447C119.329 35.6627 118.545 36.4053 117.601 36.879C116.762 37.203 115.864 37.3457 114.966 37.2979H108.153V28.7215H101.385V37.6617H96.9753V42.7215H114.613C116.472 42.8111 118.332 42.6027 120.125 42.1042C122.095 41.5067 123.839 40.3303 125.131 38.7279C126.422 37.1255 127.202 35.1715 127.368 33.12H146.207L146.185 25.3923Z" fill="white"/>
</svg>
